<?xml version="1.0" standalone="no"?>
<!DOCTYPE svg PUBLIC "-//W3C//DTD SVG 20010904//EN"
 "http://www.w3.org/TR/2001/REC-SVG-20010904/DTD/svg10.dtd">
<svg version="1.0" xmlns="http://www.w3.org/2000/svg"
 width="1000.000000pt" height="1000.000000pt" viewBox="0 0 1000.000000 1000.000000"
 preserveAspectRatio="xMidYMid meet">

<g transform="translate(0.000000,1000.000000) scale(0.100000,-0.100000)"
fill="#000000" stroke="none">
<path d="M1300 7519 c-86 -13 -217 -59 -287 -100 -32 -19 -94 -70 -138 -114
-66 -65 -89 -97 -128 -175 -78 -159 -91 -222 -91 -450 0 -180 2 -203 27 -295
15 -55 50 -146 78 -203 93 -192 244 -311 454 -359 106 -24 313 -24 405 0 218
57 376 200 464 421 47 117 48 115 -75 146 l-107 27 -16 -61 c-40 -142 -133
-260 -249 -315 -242 -115 -551 -19 -670 207 -115 219 -122 582 -15 810 99 211
353 324 597 267 137 -33 226 -109 293 -251 30 -66 43 -84 56 -80 9 3 55 14
101 25 46 11 86 22 88 25 8 8 -17 77 -56 151 -45 88 -162 207 -246 252 -126
66 -327 96 -485 72z"/>
<path d="M5838 7520 c-75 -12 -202 -55 -258 -87 -135 -78 -261 -219 -319 -356
-59 -143 -75 -232 -75 -422 0 -203 16 -272 96 -434 44 -89 64 -118 137 -190
47 -47 112 -101 144 -120 129 -76 309 -118 461 -107 385 26 649 257 732 641
23 108 23 331 -1 439 -68 321 -272 545 -565 620 -77 20 -271 29 -352 16z m263
-194 c68 -15 160 -56 215 -98 96 -71 177 -208 210 -353 27 -115 25 -340 -4
-448 -61 -225 -214 -379 -417 -422 -263 -55 -514 64 -625 296 -57 122 -74 219
-67 398 6 157 22 237 67 336 101 222 364 345 621 291z"/>
<path d="M4700 6665 l0 -835 100 0 100 0 0 835 0 835 -100 0 -100 0 0 -835z"/>
<path d="M3935 7059 c-272 -42 -420 -214 -455 -530 -43 -380 126 -661 428
-715 99 -17 141 -17 227 1 191 40 334 182 379 374 l14 59 -87 11 c-123 16
-117 17 -125 -31 -9 -54 -49 -134 -88 -175 -71 -74 -225 -102 -328 -60 -145
60 -213 196 -214 432 -1 192 35 307 120 385 57 52 115 78 191 86 151 16 259
-65 308 -232 2 -7 33 -6 102 4 54 8 99 16 100 16 5 4 -26 94 -47 139 -29 61
-100 140 -157 173 -96 57 -245 82 -368 63z"/>
<path d="M7510 7059 c-83 -14 -173 -63 -235 -127 l-55 -56 0 82 0 82 -95 0
-95 0 0 -605 0 -605 105 0 105 0 0 363 c0 369 7 459 39 532 86 194 402 222
501 45 l25 -45 3 -447 3 -448 105 0 105 0 -3 468 c-5 516 -5 521 -71 618 -36
54 -112 106 -190 129 -65 19 -180 26 -247 14z"/>
<path d="M8730 7059 c-171 -25 -319 -135 -395 -294 -48 -101 -66 -195 -66
-344 1 -210 50 -349 164 -464 167 -167 474 -204 700 -84 100 52 206 189 232
298 6 26 6 26 -67 33 -40 4 -87 9 -104 12 -30 6 -33 3 -57 -49 -34 -74 -96
-140 -160 -168 -77 -35 -200 -34 -279 3 -105 49 -180 149 -207 276 -6 29 -11
64 -11 77 l0 25 451 0 452 0 -6 108 c-11 197 -58 315 -171 428 -83 82 -155
120 -266 140 -83 15 -128 16 -210 3z m239 -190 c99 -42 170 -145 187 -271 l7
-48 -338 0 -337 0 7 48 c14 100 80 202 165 255 82 51 212 58 309 16z"/>
<path d="M2261 7013 c6 -16 110 -289 231 -608 l220 -580 -32 -85 c-41 -110
-72 -154 -124 -180 -46 -22 -128 -27 -185 -10 l-34 9 7 -67 c13 -128 13 -129
61 -141 112 -28 224 0 299 75 53 52 93 119 136 229 35 87 520 1376 520 1382 0
2 -46 3 -102 3 l-103 0 -142 -388 c-78 -214 -154 -432 -169 -486 l-28 -97 -71
208 c-39 114 -116 333 -171 485 l-99 278 -112 0 -113 0 11 -27z"/>
</g>
</svg>
